<?xml version="1.0" encoding="UTF-8" standalone="no"?>
<!-- Created with Inkscape (http://www.inkscape.org/) -->

<svg
   width="30.884571mm"
   height="52.916664mm"
   viewBox="0 0 30.884571 52.916664"
   version="1.1"
   xmlns="http://www.w3.org/2000/svg"
   xmlns:svg="http://www.w3.org/2000/svg">
  <path style="display:inline;" id="path75" d="M 5.8327069,0.795046 C 5.2075089,1.078179 4.0776549,1.156705 1.8272975,3.240169 v 0 C 1.7003147,3.357776 1.1123382,3.693766 1.3600482,4.37817 v 0 C 1.593641,5.023602 1.6424814,5.528651 1.6424814,5.528651 v 0 c 0,0 0.019524,1.071906 -0.4475938,1.868985 v 0 C 0.72781683,8.194769 0.56182403,8.685881 0.41632013,9.229562 v 0 c -0.1574781,0.588162 -0.6943533,2.622906 -0.2335357,4.441067 v 0 c 0.4066168,1.60443 2.38686847,4.545256 2.71004247,5.067035 v 0 c 0.0324,0.05232 0.05075,0.111341 0.0536,0.172378 v 0 c 0.02222,0.481186 0.160396,2.722222 0.835747,3.78617 v 0 c 0.759093,1.195666 1.363687,1.223081 1.363687,1.223081 v 0 c 0,0 0.890363,0.379316 1.677692,-0.699676 v 0 c 0.509234,-0.697876 0.05206,-6.933987 -0.05501,-7.166248 v 0 c -0.02557,-0.05537 -0.478745,-0.367985 -0.576302,-0.559006 v 0 c -0.09702,-0.189976 -0.12627,-0.18115 -0.166887,-0.51458 v 0 c -0.039,-0.320073 0.19268,-0.644093 0.19268,-0.644093 v 0 c 0,0 0.17892,-0.295276 0.853252,-0.402605 v 0 c 0.674345,-0.107388 0.756891,-0.83204 0.784349,-0.872287 v 0 c 0.02759,-0.04024 0.04133,-0.550241 1.1974,-1.060175 v 0 C 10.208971,11.490629 13.398414,11.28811 13.439633,11.28573 v 0 c 4.013985,-0.23708 7.673358,0.643111 8.097065,0.856376 v 0 c 0.41638,0.209551 0.632348,0.366359 0.855159,0.952959 v 0 c 0.106853,0.281507 0.251882,0.51696 0.37374,0.685626 v 0 c 0.124003,0.171504 0.309894,0.289984 0.520559,0.33261 v 0 c 0.365517,0.074 0.875351,0.221224 1.051707,0.367878 v 0 c 0.26969,0.224183 0.301434,0.563826 0.293456,0.757986 v 0 c -0.02066,0.505696 -0.168918,0.615111 -0.321269,0.747822 v 0 c -0.03232,0.02828 -0.332466,0.17273 -0.432047,0.423515 v 0 c -0.08023,0.202172 -0.443721,4.24586 -0.526218,5.735529 v 0 c -0.08261,1.48955 -0.09637,1.731096 -0.110128,2.174008 v 0 c -0.0138,0.442793 0.05507,1.905573 0.288931,2.442336 v 0 c 0.234014,0.536823 0.08261,0.348941 0.426626,0.939429 v 0 c 0.34408,0.590434 0.990905,0.738069 0.990905,0.738069 v 0 c 0,0 0.49548,0.107329 0.79822,-0.187889 v 0 c 0.302806,-0.295216 0.619366,-0.75148 0.743131,-1.20775 v 0 c 0.123825,-0.456269 0.09637,-2.764501 0.233952,-2.992636 v 0 c 0,0 0.110127,-0.831981 0.261466,-1.247997 v 0 c 0.151406,-0.416024 0.509184,-1.140729 0.509184,-1.140729 v 0 c 0,0 0.440448,-0.979676 0.467962,-1.650608 v 0 c 0.02753,-0.671042 0.206377,-1.23464 0.206377,-1.23464 v 0 l 0.110127,-0.805205 c 0,0 0.05506,-1.261475 0.289042,-1.596944 v 0 c 0,0 0.16516,-0.55018 0.536697,-1.087004 v 0 c 0.371593,-0.536763 0.495419,-2.214261 0.495419,-2.254508 v 0 c 0,-0.04024 -0.06879,-2.200897 -0.619244,-3.032937 v 0 c 0,0 -1.293645,-1.57011 -2.518435,-2.509479 v 0 C 25.364321,6.649755 23.060543,5.280312 22.447191,4.917487 v 0 C 22.374881,4.874677 21.596256,4.413771 21.52151,4.375438 v 0 C 21.081897,4.149856 19.281754,3.232097 18.94941,3.058439 v 0 C 18.564059,2.85714 15.851455,1.721057 15.851455,1.721057 v 0 C 14.454355,1.1901 12.571844,0.624582 11.851461,0.339823 v 0 C 11.688747,0.275473 11.487373,0.195901 11.322097,0.138116 v 0 C 11.154552,0.079576 10.856332,0.008832 10.669312,0 v 0 c -0.0043,0 -0.01,0 -0.01619,0 V 0 C 10.25407,-5.3990321e-5 6.5916619,0.451744 5.8326859,0.795333 M 30.02068,14.017238 c 0,0 -0.150511,0.737836 -0.293928,1.08759 v 0 c -0.143484,0.349695 -0.586549,1.002672 -0.834139,1.838084 v 0 c -0.247652,0.835406 -0.22752,1.122492 -0.22752,1.122492 v 0 c 0,0 -0.08702,0.698336 -0.160636,0.868047 v 0 c -0.173977,0.400913 -0.07892,0.51934 -0.10042,0.757059 v 0 c 0,0 -0.08034,0.75706 -0.127155,1.018123 v 0 c -0.04691,0.261063 -0.468501,1.213909 -0.548845,1.442331 v 0 c -0.08029,0.228428 -0.220856,0.541761 -0.260994,0.626555 v 0 c -0.04016,0.08485 -0.194108,0.306774 -0.22091,0.561278 v 0 c -0.02673,0.254558 -0.207446,1.23348 -0.274392,2.127609 v 0 c 0,0 -0.06689,1.755665 -0.167362,2.04931 v 0 c -0.09458,0.27692 -0.113764,0.691783 -0.642417,1.220414 v 0 c 0,0 -0.394942,0.319786 -0.722822,0.319786 v 0 c 0,0 0.0067,0.567838 0.602333,0.926764 v 0 c 0.595661,0.358986 1.20466,0.150135 1.20466,0.150135 v 0 c 0,0 0.426392,-0.07545 0.499772,-0.567838 v 0 c 0.07581,-0.509061 -0.03765,-1.665766 0.149492,-2.701953 v 0 c 0,0 0.203276,-2.104199 0.203276,-2.334827 v 0 c 0,-0.230634 0.212093,-0.986007 0.244678,-1.121218 v 0 c 0,0 0.510073,-1.999657 0.690183,-2.39477 v 0 c 0.08933,-1.073934 0.06831,-1.025495 0.345207,-1.756191 v 0 c 0,0 0.03005,-0.20484 0.07505,-0.380476 v 0 c 0.04501,-0.175572 0.357533,-1.360959 0.59893,-1.785347 v 0 c 0.184702,-0.324659 0.474043,-0.91474 0.59983,-1.174236 v 0 c 0.04648,-0.09589 0.08559,-0.195028 0.114298,-0.297364 v 0 c 0.49822,-1.775822 -0.746167,-3.125402 -0.746167,-3.125402 v 0 c 0,0 0.07213,0.984788 0,1.524045 M 8.7507689,16.183007 c 0,0 2.5258231,1.613602 5.4000121,1.681557 v 0 c 2.874189,0.06796 7.699265,-1.171976 7.699265,-1.171976 v 0 c 0,0 -2.368996,0.152867 -3.274723,0.25479 v 0 c -0.905852,0.101876 -3.901959,0.0679 -3.901959,0.0679 v 0 c 0,0 -1.776794,-0.0679 -2.700034,-0.186782 v 0 C 11.050089,16.709556 8.7507689,16.081081 8.7507689,16.081081 v 0 c -0.05672,-0.01519 -0.09262,-0.02141 -0.113463,-0.02141 v 0 c -0.09297,-5.4e-5 0.113463,0.123359 0.113463,0.123359 m 20.1166441,6.159971 c -0.926037,2.80928 -0.571778,4.75864 -0.571778,4.75864 v 0 c 0.984889,-0.128992 1.115681,-1.032006 1.115681,-1.032006 v 0 C 29.602383,25.481993 29.308455,23.20303 29.308455,23.20303 v 0 c 0.543786,-0.243699 0.543786,-0.774017 0.558558,-0.931697 v 0 c 0.01294,-0.13957 -0.261945,-1.84401 -0.26731,-1.849003 v 0 z M 3.0652269,24.563589 c -0.428474,0.399932 -0.160336,0.890936 -0.160336,0.890936 v 0 c 0,0 0.352655,1.203512 0.400781,2.657747 v 0 c 0.03347,1.013309 -0.05188,2.094041 -0.106734,2.656126 v 0 c -0.01907,0.194795 -0.05235,0.387442 -0.09666,0.578291 v 0 c -0.09923,0.427173 -0.248245,1.391105 -0.261469,1.610242 v 0 c -0.01601,0.265768 -0.272488,2.172615 -0.288508,2.23511 v 0 c -0.07427,0.289698 -0.288569,0.953421 -0.464868,1.453597 v 0 c -0.176296,0.500121 -0.1923196,0.750266 -0.1923196,0.750266 v 0 c -0.01601,0.781449 -0.4648646,1.81305 -0.4648646,1.81305 v 0 c -0.3365739,1.453601 -0.240385,1.875658 -0.240385,1.875658 v 0 c 0.5770195,1.406729 1.5387352,2.156937 1.5387352,2.156937 v 0 c -0.08011,-0.625222 0.09619,-2.782153 0.09619,-2.782153 v 0 c 0.08035,-1.083638 0.361947,-3.301384 0.452536,-4.002567 v 0 c 0.0115,-0.08875 0.02818,-0.233827 0.03591,-0.322985 v 0 c 0.04532,-0.525146 0.221682,-1.389474 0.349498,-1.971949 v 0 c 0.06129,-0.2793 0.135619,-0.555874 0.233593,-0.825068 v 0 c 0.264566,-0.727265 0.359447,-2.124709 0.359447,-2.124709 v 0 c 0.131865,-0.831454 -0.123051,-3.101759 -0.148664,-4.460344 v 0 c -0.02167,-1.146941 1.066722,-1.906846 1.066722,-1.906846 v 0 c -0.217215,-0.328265 -0.573206,-0.468235 -0.891495,-0.575043 v 0 c -0.104291,-0.03504 -0.223589,-0.05501 -0.350333,-0.05501 v 0 c -0.281184,5.9e-5 -0.598519,0.09832 -0.866778,0.348701 m 2.762871,0.819669 c 0,0 -1.208889,0.180163 -1.33188,1.718384 v 0 c 0,0 -0.09214,0.67906 0,1.20775 v 0 c 0.09214,0.528578 0.272844,1.487984 0.252713,1.899128 v 0 c -0.02001,0.411198 -0.06135,1.62348 -0.209115,2.420206 v 0 c -0.04181,0.225522 -0.196012,0.886577 -0.553849,2.239644 v 0 c -0.03003,0.113427 -0.101671,0.54187 -0.156347,0.880646 v 0 c -0.04437,0.27448 -0.07111,0.551053 -0.0804,0.828787 v 0 c -0.0089,0.269488 -0.02437,0.619762 -0.0489,0.846731 v 0 c 0,0 -0.623771,3.953848 -0.534669,5.289891 v 0 c 0.08916,1.336108 0.06683,0.977702 0.200538,1.390413 v 0 c 0,0 0.968805,1.817521 4.410961,4.033468 v 0 c 0,0 2.8071811,1.466434 3.5089771,1.8249 v 0 c 0.701798,0.35846 2.43958,0.81473 2.907424,0.945056 v 0 c 0.467844,0.13039 2.773769,1.173142 4.611794,1.629345 v 0 c 1.838026,0.456276 3.202663,0.385122 3.542334,0.358526 v 0 c 0.439792,-0.0345 3.876586,-0.521492 6.449814,-3.649853 v 0 c 0,0 0.167128,-0.325945 0,-0.716872 v 0 c -0.167061,-0.391102 -0.401014,-0.879953 -0.401014,-1.36875 v 0 c 0,-0.488791 -0.06682,-1.661981 0.03348,-2.281104 v 0 c 0.100236,-0.619182 0.534669,-2.802542 -1.035986,-6.061294 v 0 c 0,0 -0.701858,-0.814676 -1.00258,-2.150784 v 0 C 26.090614,35.33136 26.02379,33.441297 26.190857,32.496236 v 0 c 0.16706,-0.945064 -0.122699,-1.20578 -0.696322,-1.987875 v 0 c -0.573562,-0.782089 -1.77667,-0.315134 -1.77667,-0.315134 v 0 c 0,0 -0.802039,0.11964 -0.969106,1.553439 v 0 c -0.167122,1.433852 -0.969162,6.647889 -1.13623,7.169321 v 0 c -0.167183,0.521379 -2.80718,2.313692 -6.249333,2.215948 v 0 c -3.442153,-0.09775 -5.5474821,-1.401271 -6.0488001,-2.28111 v 0 c 0,0 -0.312335,-0.761706 -0.601553,-2.932927 v 0 c -0.288514,-2.166869 -0.293217,-2.536774 -0.300778,-2.63963 v 0 c -0.05629,-0.773616 -0.189405,-1.80219 -0.177791,-2.584459 v 0 c 0.01122,-0.752233 -0.124598,-2.278956 -0.257836,-2.938039 v 0 c -0.0782,-0.386688 -0.298631,-1.5485 -1.140098,-2.19695 v 0 c -0.250331,-0.193001 -0.485356,-0.244746 -0.665343,-0.244746 v 0 c -0.208224,0 -0.342891,0.06917 -0.342891,0.06917 m -4.2737296,2.874444 c -0.013527,1.052276 0.4717144,3.128074 0.5256186,3.351503 v 0 c 0,0 -0.5931616,0.309681 -0.5259755,0.906907 v 0 c 0.148007,1.314386 0.5798765,2.32635 0.5798765,2.32635 v 0 c 0.336991,-1.051464 0.835686,-4.179537 0.862607,-5.296743 v 0 c 0.02697,-1.117146 -0.30995,-2.628652 -0.30995,-2.628652 v 0 c 0,0 -1.1187167,0.288365 -1.1321766,1.340635"/>
</svg>
